<svg xmlns="http://www.w3.org/2000/svg" viewBox="0 0 900 180" width="900" height="180" role="img" aria-label="Vagues liquides décoratives">
  <title>Vagues liquides</title>
  <defs>
    <linearGradient id="wB" x1="0" y1="0" x2="1" y2="0"><stop offset="0" stop-color="#2F6B72"/><stop offset="1" stop-color="#9CC4CC"/></linearGradient>
    <linearGradient id="wV" x1="0" y1="0" x2="1" y2="0"><stop offset="0" stop-color="#5B97A6"/><stop offset="1" stop-color="#9CC4CC"/></linearGradient>
    <linearGradient id="wM" x1="0" y1="0" x2="1" y2="0"><stop offset="0" stop-color="#2F6B72"/><stop offset="0.5" stop-color="#DCEBEA"/><stop offset="1" stop-color="#5B97A6"/></linearGradient>
  </defs>

  <path d="M -600 74 q 75 -12 150 0 t 150 0 t 150 0 t 150 0 t 150 0 t 150 0 t 150 0 t 150 0 t 150 0 t 150 0 t 150 0 t 150 0 t 150 0 t 150 0 t 150 0 t 150 0 L 1800 180 L -600 180 Z" fill="url(#wB)" opacity="0.40">
    <animateTransform attributeName="transform" type="translate" values="0 0; 300 0" dur="13s" repeatCount="indefinite"/>
  </path>
  <path d="M -600 90 q 75 -16 150 0 t 150 0 t 150 0 t 150 0 t 150 0 t 150 0 t 150 0 t 150 0 t 150 0 t 150 0 t 150 0 t 150 0 t 150 0 t 150 0 t 150 0 t 150 0 L 1800 180 L -600 180 Z" fill="url(#wV)" opacity="0.52">
    <animateTransform attributeName="transform" type="translate" values="0 0; -300 0" dur="9s" repeatCount="indefinite"/>
  </path>
  <path d="M -600 106 q 75 -12 150 0 t 150 0 t 150 0 t 150 0 t 150 0 t 150 0 t 150 0 t 150 0 t 150 0 t 150 0 t 150 0 t 150 0 t 150 0 t 150 0 t 150 0 t 150 0 L 1800 180 L -600 180 Z" fill="url(#wM)" opacity="0.85">
    <animateTransform attributeName="transform" type="translate" values="0 0; 300 0" dur="7s" repeatCount="indefinite"/>
  </path>
</svg>
