<svg xmlns="http://www.w3.org/2000/svg" viewBox="0 0 900 180" width="900" height="180" role="img" aria-label="Merci de votre visite">
  <title>Merci de votre visite</title>
  <defs>
    <linearGradient id="wB" x1="0" y1="0" x2="1" y2="0"><stop offset="0" stop-color="#5865F2"/><stop offset="1" stop-color="#7c83ff"/></linearGradient>
    <linearGradient id="wV" x1="0" y1="0" x2="1" y2="0"><stop offset="0" stop-color="#9146FF"/><stop offset="1" stop-color="#6f5cff"/></linearGradient>
    <linearGradient id="wM" x1="0" y1="0" x2="1" y2="0"><stop offset="0" stop-color="#5865F2"/><stop offset="0.5" stop-color="#7c5cff"/><stop offset="1" stop-color="#9146FF"/></linearGradient>
    <filter id="glow" x="-30%" y="-120%" width="160%" height="340%"><feGaussianBlur stdDeviation="5"/></filter>
  </defs>

  <path d="M -600 74 q 75 -12 150 0 t 150 0 t 150 0 t 150 0 t 150 0 t 150 0 t 150 0 t 150 0 t 150 0 t 150 0 t 150 0 t 150 0 t 150 0 t 150 0 t 150 0 t 150 0 L 1800 180 L -600 180 Z" fill="url(#wB)" opacity="0.40">
    <animateTransform attributeName="transform" type="translate" values="0 0; 300 0" dur="13s" repeatCount="indefinite"/>
  </path>
  <path d="M -600 90 q 75 -16 150 0 t 150 0 t 150 0 t 150 0 t 150 0 t 150 0 t 150 0 t 150 0 t 150 0 t 150 0 t 150 0 t 150 0 t 150 0 t 150 0 t 150 0 t 150 0 L 1800 180 L -600 180 Z" fill="url(#wV)" opacity="0.52">
    <animateTransform attributeName="transform" type="translate" values="0 0; -300 0" dur="9s" repeatCount="indefinite"/>
  </path>
  <path d="M -600 106 q 75 -12 150 0 t 150 0 t 150 0 t 150 0 t 150 0 t 150 0 t 150 0 t 150 0 t 150 0 t 150 0 t 150 0 t 150 0 t 150 0 t 150 0 t 150 0 t 150 0 L 1800 180 L -600 180 Z" fill="url(#wM)" opacity="0.85">
    <animateTransform attributeName="transform" type="translate" values="0 0; 300 0" dur="7s" repeatCount="indefinite"/>
  </path>

  <text x="450" y="151" text-anchor="middle" filter="url(#glow)" font-family="Segoe UI, Helvetica, Arial, sans-serif" font-size="17" font-weight="700" letter-spacing="2" fill="#9146FF" fill-opacity="0.7">&#10022;&#160;&#160;Merci de votre visite&#160;&#160;&#10022;</text>
  <text x="450" y="151" text-anchor="middle" font-family="Segoe UI, Helvetica, Arial, sans-serif" font-size="17" font-weight="600" letter-spacing="2" fill="#ffffff">&#10022;&#160;&#160;Merci de votre visite&#160;&#160;&#10022;</text>
</svg>
